<svg width="25" height="26" viewBox="0 0 25 26" fill="none" xmlns="http://www.w3.org/2000/svg">
<circle cx="12.5" cy="12.5" r="12.5" fill="white"/>
<path d="M13.9116 15.2504H5.9098V12.9759H13.8519C14.4933 12.9759 15.0202 12.8739 15.4329 12.6701C15.8505 12.4663 16.1587 12.1829 16.3576 11.82C16.5614 11.457 16.6609 11.032 16.6559 10.5447C16.6609 10.0675 16.5614 9.63991 16.3576 9.26207C16.1587 8.87926 15.8555 8.57848 15.4478 8.35973C15.0451 8.13601 14.533 8.02415 13.9116 8.02415H10.9137V21H8.15447V5.72727H13.9116C15.0948 5.72727 16.0966 5.94105 16.9169 6.36861C17.7372 6.79119 18.3587 7.36541 18.7812 8.09126C19.2088 8.81214 19.4226 9.62251 19.4226 10.5224C19.4226 11.457 19.2063 12.2798 18.7738 12.9908C18.3413 13.6967 17.7148 14.2511 16.8945 14.6538C16.0742 15.0515 15.0799 15.2504 13.9116 15.2504ZM14.2621 16.3839V18.6584H5.9098V16.3839H14.2621Z" fill="black"/>
</svg>
