<svg width="28" height="28" viewBox="0 0 28 28" fill="none" xmlns="http://www.w3.org/2000/svg">
<g id="Solid/Brands/Telegram">
<path id="Subtract" fill-rule="evenodd" clip-rule="evenodd" d="M21.5637 23.0885L21.5645 23.0865L21.5848 23.0357L25.0833 5.39683V5.33954C25.0833 4.90005 24.921 4.51638 24.5676 4.28625C24.2583 4.08481 23.9027 4.07046 23.6534 4.08939C23.3897 4.1094 23.1411 4.17522 22.969 4.23001C22.8804 4.25819 22.8063 4.28535 22.7533 4.30589C22.7267 4.3162 22.7051 4.32495 22.6895 4.33147L22.6741 4.33795L3.1676 11.99L3.16223 11.992C3.1517 11.9958 3.13777 12.001 3.12094 12.0075C3.08739 12.0206 3.04173 12.0393 2.98809 12.0636C2.88276 12.1113 2.73723 12.185 2.58965 12.2861C2.33898 12.4577 1.86168 12.8641 1.94228 13.5084C2.00904 14.042 2.37689 14.3809 2.62489 14.5564C2.75783 14.6505 2.88501 14.7183 2.97814 14.7626C3.02533 14.7851 3.06542 14.8023 3.09527 14.8145C3.11024 14.8206 3.12275 14.8254 3.13243 14.8291L3.14483 14.8337L3.15275 14.8367L6.56553 15.9856C6.55401 16.1997 6.57525 16.4181 6.63204 16.6335L8.34153 23.1183C8.54423 23.8872 9.23982 24.4228 10.035 24.4222C10.7477 24.4217 11.3799 23.9905 11.6484 23.3472L14.3174 20.4934L18.9012 24.0077L18.9664 24.0361C19.3828 24.2179 19.7719 24.2754 20.1277 24.2268C20.4829 24.1783 20.7652 24.0293 20.9773 23.8597C21.1859 23.6927 21.329 23.5043 21.4189 23.3625C21.4646 23.2904 21.4986 23.227 21.5223 23.1794C21.5341 23.1554 21.5435 23.1352 21.5505 23.1194L21.5593 23.0991L21.5624 23.0916L21.5637 23.0885ZM8.32417 16.1874C8.28532 16.04 8.34631 15.8844 8.47498 15.8027L20.0507 8.45162C20.0507 8.45162 20.7315 8.03828 20.7072 8.45162C20.7072 8.45162 20.8287 8.52462 20.4639 8.86497C20.1178 9.18822 12.2136 16.8195 11.4138 17.5917C11.3676 17.6362 11.34 17.6874 11.3238 17.7494L10.0337 22.6722L8.32417 16.1874Z" fill="white"/>
</g>
</svg>
